<svg width="77" height="91" viewBox="0 0 77 91" fill="none" xmlns="http://www.w3.org/2000/svg">
<path d="M38.0571 90.2927C37.8566 90.2927 37.6562 90.2369 37.4797 90.1257L0.503824 66.7725C0.190286 66.5744 0 66.2293 0 65.8583V24.9902C0 24.6193 0.19007 24.274 0.503824 24.0759L37.4797 0.722704C37.8322 0.499984 38.2815 0.499984 38.6344 0.722704L75.6103 24.0759C75.9239 24.274 76.1141 24.6191 76.1141 24.9902V65.8583C76.1141 66.2293 75.9239 66.5744 75.6103 66.7725L38.6344 90.1257C38.4582 90.2369 38.2575 90.2927 38.0571 90.2927ZM23.3301 78.6314L38.0571 87.9327L73.9518 65.2623V46.9932L57.6262 36.6823V56.1278C57.6262 56.4967 57.4381 56.8403 57.1271 57.039L23.3301 78.6314ZM2.16233 65.2623L21.3102 77.3558L36.1471 67.8768L18.9918 57.042C18.678 56.8439 18.488 56.4988 18.488 56.1278V15.2752L2.16233 25.5861V65.2623ZM20.6503 55.5318L38.1602 66.5909L55.4639 55.5355V35.3166L38.0571 24.3229L20.6503 35.3166V55.5318ZM73.9518 44.4356V25.5861L38.0571 2.91574L20.6503 13.9095V32.759L37.4797 22.1298C37.8322 21.9071 38.2815 21.9069 38.6344 22.1298L73.9518 44.4356Z" fill="white"/>
</svg>
