<svg width="101" height="18" viewBox="0 0 101 18" fill="none" xmlns="http://www.w3.org/2000/svg">
<path d="M31.3341 4.00003L34.6174 13.8H32.8007L32.1174 11.6334H28.7341L28.0674 13.8H26.2507L29.5341 4.00003H31.3341ZM29.2174 10H31.6007L30.3841 6.2167L29.2174 10ZM35.9674 13.7834V4.0167H40.1174C41.8007 4.0167 42.8174 5.05003 42.8174 6.16669V8.23336C42.8174 9.01669 42.284 9.7667 41.384 10.1334L43.034 13.7667H41.134L39.584 10.35H37.784V13.7667H35.9674V13.7834ZM37.8007 5.65003V8.76669H39.984C40.5674 8.76669 41.034 8.43336 41.034 7.8667V6.58336C41.034 5.98336 40.534 5.66669 39.9007 5.66669H37.8007V5.65003ZM46.4174 13.7834V5.6167H44.0007V4.0167H50.4507V5.6167H48.2174V13.7834H46.4174ZM52.6174 11V11.6334C52.6174 12.5 53.4174 13.15 54.4674 13.15H55.6174C56.7007 13.15 57.5174 12.6334 57.5174 11.7334V11.05C57.5174 9.55003 52.1174 9.26669 52.1174 6.68336V5.80003C52.1174 4.8167 53.0507 3.95003 54.3007 3.95003H55.584C56.984 3.95003 58.0174 4.88336 58.0174 5.95003V6.83336H57.2174V6.10003C57.2174 5.30003 56.4674 4.68336 55.534 4.68336H54.4174C53.584 4.68336 52.9174 5.2167 52.9174 5.93336V6.65003C52.9174 8.5667 58.3174 8.81669 58.3174 10.9334V11.8667C58.3174 13.1 57.184 13.8667 55.6674 13.8667H54.4174C52.9007 13.8667 51.784 12.8834 51.784 11.75V11H52.6174ZM62.3674 13.7834V4.73336H59.634V4.0167H65.784V4.73336H63.1674V13.7834H62.3674ZM70.134 3.98336L73.5674 13.8H72.7674L71.6674 10.6667H67.7674L66.684 13.8H65.8507L69.3007 3.98336H70.134ZM68.0174 9.93336H71.4174L69.734 5.0167L68.0174 9.93336ZM76.434 13.7834V4.73336H73.7007V4.0167H79.8507V4.73336H77.234V13.7834H76.434ZM81.6507 13.7834V4.03336H82.4507V13.7834H81.6507ZM87.4674 13.8667C86.1174 13.8667 85.1674 12.8834 85.1674 11.75V6.0667C85.1674 4.93336 86.1507 3.95003 87.4674 3.95003H89.4007C90.7174 3.95003 91.684 4.93336 91.684 6.0667V11.75C91.684 12.8834 90.7174 13.8667 89.4007 13.8667H87.4674ZM89.334 13.1334C90.2007 13.1334 90.884 12.4834 90.884 11.6167V6.20003C90.884 5.33336 90.2007 4.68336 89.334 4.68336H87.5174C86.6507 4.68336 85.9674 5.33336 85.9674 6.20003V11.6334C85.9674 12.5 86.6507 13.15 87.5174 13.15H89.334V13.1334ZM94.4007 13.7834V4.03336H95.2507L100.151 12.3667V4.0167H100.951V13.7667H100.101L95.2007 5.43336V13.7667H94.4007V13.7834Z" fill="white"/>
<path d="M0.950684 13.7833L2.66735 16.7333C3.01735 17.4 3.70068 17.8667 4.48402 17.8667H15.8673L13.5173 13.7833H0.950684ZM21.2673 13.8167C21.2673 13.4167 21.1507 13.0333 20.934 12.7L14.2507 1.1C13.9007 0.450001 13.234 0 12.4507 0H8.91735L19.234 17.85L20.8673 15.0333C21.1673 14.5 21.2673 14.2667 21.2673 13.8167ZM11.834 10.8667L7.23402 2.9L2.63402 10.8667H11.834Z" fill="white"/>
</svg>
