<svg width="101" height="19" viewBox="0 0 101 19" fill="none" xmlns="http://www.w3.org/2000/svg">
<path d="M9.54489 0.147705C10.3962 0.147705 11.1827 0.212567 11.9042 0.407153C12.6258 0.536877 13.2177 0.804433 13.7447 1.12874C14.2717 1.45305 14.6609 1.91519 14.9284 2.50706C15.1879 3.09892 15.3257 3.82051 15.3257 4.60697C15.3257 5.52314 15.1311 6.30959 14.669 6.90146C14.2717 7.49332 13.6231 8.02033 12.8285 8.4095C13.9474 8.73381 14.7987 9.32567 15.3176 10.1121C15.8365 10.8986 16.1689 11.8796 16.1689 12.9985C16.1689 13.9147 15.9743 14.7011 15.6419 15.3578C15.3176 16.0146 14.7906 16.6064 14.1987 16.9956C13.6069 17.3929 12.8853 17.7172 12.0988 17.9118C11.3124 18.1064 10.5259 18.2361 9.73948 18.2361L0.950684 18.2523V0.147705H9.54489ZM9.01789 7.49332C9.73948 7.49332 10.3313 7.29874 10.7854 6.96632C11.2394 6.6339 11.4421 6.05014 11.4421 5.32855C11.4421 4.93128 11.3772 4.5421 11.2475 4.28266C11.1178 4.02321 10.9232 3.82051 10.6557 3.62593C10.3962 3.4962 10.1287 3.36648 9.80434 3.30162C9.48003 3.23676 9.14761 3.23676 8.75844 3.23676H4.95591V7.50143C4.95591 7.49332 9.01789 7.49332 9.01789 7.49332ZM9.21248 15.2362C9.60976 15.2362 9.99893 15.1714 10.3313 15.1065C10.6557 15.0416 10.9881 14.9119 11.2475 14.7092C11.507 14.5065 11.7097 14.3119 11.9042 13.9876C12.034 13.6633 12.1637 13.266 12.1637 12.8039C12.1637 11.8877 11.9042 11.231 11.3772 10.7689C10.8502 10.3716 10.1287 10.177 9.27734 10.177H4.95591V15.2281H9.21248V15.2362ZM21.8768 15.1714C22.4038 15.6984 23.1902 15.9578 24.2361 15.9578C24.9577 15.9578 25.6144 15.7632 26.1414 15.4308C26.6685 15.0335 26.9928 14.6444 27.1225 14.2471H30.3332C29.8061 15.82 29.0197 16.9388 27.9738 17.6604C26.9279 18.3172 25.6793 18.7063 24.1713 18.7063C23.1254 18.7063 22.2011 18.5117 21.3498 18.1793C20.4985 17.855 19.8417 17.3929 19.2499 16.7362C18.658 16.1443 18.204 15.4227 17.9364 14.5714C17.6121 13.7201 17.4743 12.8039 17.4743 11.7499C17.4743 10.7689 17.604 9.84457 17.9364 8.99326C18.2688 8.14194 18.7229 7.42035 19.3147 6.76363C19.9066 6.17176 20.6282 5.64476 21.4146 5.32045C22.2659 4.99614 23.1173 4.79344 24.1713 4.79344C25.2901 4.79344 26.2712 4.98803 27.1225 5.45017C27.9738 5.91231 28.6305 6.43121 29.1575 7.21766C29.6845 7.93925 30.0737 8.79056 30.3413 9.70674C30.471 10.6229 30.5358 11.5472 30.471 12.5931H20.9606C20.9606 13.6633 21.3498 14.6444 21.8768 15.1714ZM26.0117 8.27977C25.5496 7.81763 24.828 7.55818 23.9767 7.55818C23.3848 7.55818 22.9308 7.68791 22.5335 7.88249C22.1362 8.07708 21.8768 8.34464 21.6173 8.60408C21.3579 8.86353 21.22 9.19595 21.1552 9.52026C21.0903 9.84457 21.0255 10.1121 21.0255 10.3716H26.9279C26.7982 9.39864 26.4658 8.74192 26.0117 8.27977ZM20.239 1.3963H27.5846V3.16379H20.239V1.3963ZM35.587 0.147705V6.96632H35.6518C36.114 6.17987 36.6977 5.65286 37.4193 5.32855C38.1409 5.00424 38.7976 4.80155 39.5192 4.80155C40.5003 4.80155 41.2867 4.93127 41.8786 5.19883C42.4704 5.45828 42.9974 5.85556 43.3218 6.3177C43.6461 6.77984 43.9136 7.3636 44.0433 8.02033C44.1731 8.67705 44.2379 9.39864 44.2379 10.25V18.3172H40.63V10.9067C40.63 9.78781 40.4354 9.00136 40.103 8.48247C39.7706 7.96357 39.1949 7.68791 38.3436 7.68791C37.3626 7.68791 36.641 8.01222 36.2437 8.53922C35.7816 9.13109 35.587 10.1121 35.587 11.4256V18.3172H31.979V0.147705H35.587ZM46.873 7.10415C47.2702 6.51229 47.7243 6.12311 48.3161 5.72583C48.908 5.40152 49.5647 5.13397 50.2863 5.00424C51.0079 4.87452 51.7295 4.80966 52.4511 4.80966C53.1078 4.80966 53.7645 4.87452 54.4861 4.93938C55.1428 5.00424 55.7996 5.19883 56.3266 5.46639C56.9184 5.72583 57.3076 6.12311 57.7049 6.58526C58.0292 7.0474 58.2319 7.70412 58.2319 8.49058V15.3822C58.2319 15.974 58.2968 16.5659 58.3616 17.0848C58.4265 17.6118 58.6211 18.0658 58.8238 18.3334H55.151C55.0212 18.2037 54.9564 17.9361 54.8915 17.7415C54.8266 17.5469 54.8266 17.2794 54.8266 17.0848C54.2348 17.6767 53.5781 18.0658 52.7916 18.3334C52.0052 18.5928 51.2187 18.6577 50.4322 18.6577C49.7755 18.6577 49.2485 18.5928 48.6648 18.3982C48.1378 18.2685 47.6837 18.001 47.2216 17.6767C46.8243 17.3523 46.5 16.9551 46.2405 16.4281C46.046 15.9011 45.9162 15.3822 45.9162 14.6606C45.9162 13.939 46.046 13.2823 46.3135 12.8201C46.573 12.358 46.9054 11.9688 47.2946 11.6364C47.6918 11.3769 48.2107 11.1094 48.7377 10.9797C49.2647 10.8499 49.7836 10.7202 50.3755 10.6553C50.9025 10.5905 51.4214 10.5256 51.9484 10.4608C52.4754 10.3959 52.9294 10.331 53.3267 10.2662C53.724 10.1364 54.0483 10.0067 54.3078 9.80403C54.5672 9.60944 54.6321 9.34189 54.6321 8.95272C54.6321 8.55544 54.5672 8.23113 54.4375 8.03654C54.3078 7.84196 54.1132 7.63926 53.9105 7.50954C53.7159 7.37981 53.4483 7.31495 53.1889 7.25009C52.9294 7.18523 52.597 7.18523 52.2727 7.18523C51.5511 7.18523 51.0241 7.31495 50.6349 7.64737C50.2377 7.97168 49.9782 8.49868 49.9134 9.15541H46.3054C46.2811 8.34464 46.5405 7.62305 46.873 7.10415ZM54.024 12.2201C53.8294 12.285 53.5618 12.3499 53.3024 12.4147C53.0429 12.4796 52.7754 12.4796 52.4511 12.5444C52.1916 12.6093 51.8592 12.6093 51.5998 12.6742C51.3403 12.739 51.0728 12.8039 50.8133 12.8688C50.5539 12.9336 50.2863 13.0633 50.1566 13.1931C49.962 13.3228 49.8323 13.5174 49.6944 13.7201C49.4999 13.9795 49.4999 14.2471 49.4999 14.5714C49.4999 14.8957 49.5647 15.1633 49.6944 15.3578C49.8242 15.5524 49.9539 15.7551 50.1566 15.8848C50.3512 16.0146 50.6187 16.0794 50.8782 16.1443C51.1376 16.2091 51.4052 16.2091 51.7295 16.2091C52.4511 16.2091 52.9781 16.0794 53.3673 15.8848C53.7645 15.6254 54.024 15.3578 54.2186 15.0335C54.4132 14.7092 54.5429 14.3768 54.5429 14.0525C54.6077 13.7282 54.6077 13.4606 54.6077 13.266V11.8877C54.4132 12.0174 54.2186 12.1553 54.024 12.2201ZM63.6641 5.13397V6.97443H63.729C64.1911 6.18798 64.7748 5.66097 65.4964 5.33666C66.218 5.01235 67.0045 4.80966 67.7261 4.80966C68.7071 4.80966 69.4936 4.93938 70.0854 5.20694C70.7422 5.46639 71.2043 5.86367 71.5286 6.32581C71.8529 6.78795 72.1205 7.37171 72.3151 8.02843C72.4448 8.68516 72.5096 9.40675 72.5096 10.2581V18.3253H68.9017V10.9148C68.9017 9.79592 68.7071 9.00947 68.3747 8.49058C68.0504 7.96357 67.4585 7.63926 66.5342 7.63926C65.5532 7.63926 64.8316 8.03654 64.3695 8.6203C63.9073 9.21216 63.7127 10.1932 63.7127 11.5067V18.3982H60.1048V5.13397H63.6641ZM80.5931 7.49332C80.0012 7.49332 79.5472 7.62305 79.1499 7.8906C78.7526 8.15005 78.4283 8.48247 78.1688 8.9365C77.9094 9.33378 77.7716 9.78781 77.6418 10.3148C77.5121 10.8418 77.5121 11.2959 77.5121 11.8229C77.5121 12.285 77.577 12.8039 77.6418 13.266C77.7716 13.793 77.9013 14.1822 78.1688 14.5795C78.4283 14.9768 78.6959 15.3011 79.085 15.5605C79.4823 15.82 79.9363 15.9578 80.5282 15.9578C81.3795 15.9578 82.0362 15.6984 82.5632 15.2362C83.0254 14.7741 83.3497 14.1174 83.4146 13.266H86.8928C86.6333 15.0335 85.9766 16.347 84.8577 17.2713C83.7389 18.1874 82.2957 18.6496 80.5282 18.6496C79.5472 18.6496 78.6229 18.455 77.8364 18.1226C76.9851 17.7983 76.3284 17.3361 75.7365 16.7443C75.1447 16.1524 74.6906 15.4308 74.3582 14.6444C74.0339 13.793 73.8961 12.9417 73.8961 11.9526C73.8961 10.9067 74.0258 9.9824 74.3582 9.13109C74.6825 8.27977 75.0798 7.49332 75.6717 6.8366C76.2635 6.17987 76.9851 5.71773 77.7716 5.32855C78.6229 5.00424 79.5391 4.80155 80.5931 4.80155C81.3795 4.80155 82.1011 4.93128 82.8227 5.12586C83.5443 5.32045 84.201 5.65286 84.728 6.04204C85.3199 6.43932 85.7739 6.95821 86.1063 7.61494C86.4306 8.2068 86.6333 8.99326 86.6982 9.84457H83.1551C83.0173 8.27977 82.166 7.49332 80.5931 7.49332ZM92.3331 15.1714C92.8601 15.6984 93.7114 15.9578 94.6924 15.9578C95.414 15.9578 96.0707 15.7632 96.5977 15.4308C97.1247 15.0335 97.4491 14.6444 97.5788 14.2471H100.725C100.198 15.82 99.4111 16.9388 98.3652 17.6604C97.3193 18.3172 96.0707 18.7063 94.5627 18.7063C93.5168 18.7063 92.5925 18.5117 91.7412 18.1793C90.8899 17.855 90.2332 17.3929 89.6413 16.7362C89.0494 16.1443 88.5954 15.4227 88.3278 14.5714C88.0035 13.7201 87.8657 12.8039 87.8657 11.7499C87.8657 10.7689 87.9954 9.84457 88.3278 8.99326C88.6522 8.14194 89.1143 7.42035 89.7062 6.76363C90.298 6.17176 91.0196 5.64476 91.8061 5.32045C92.6574 4.99614 93.5736 4.79344 94.5627 4.79344C95.6816 4.79344 96.6626 4.98803 97.4491 5.45017C98.3004 5.91231 98.9571 6.43121 99.4841 7.21766C100.011 7.93925 100.4 8.79056 100.668 9.70674C100.927 10.6229 100.992 11.6121 100.927 12.658H91.4169C91.4169 13.6633 91.8061 14.6444 92.3331 15.1714ZM96.5329 8.27977C96.0707 7.81763 95.3492 7.55818 94.4978 7.55818C93.906 7.55818 93.4519 7.68791 93.0547 7.88249C92.6574 8.07708 92.3331 8.34464 92.1385 8.60408C91.9439 8.86353 91.7412 9.19595 91.6763 9.52026C91.6115 9.84457 91.5466 10.1121 91.5466 10.3716H97.4491C97.2545 9.39864 96.9221 8.74192 96.5329 8.27977Z" fill="white"/>
</svg>
