<svg width="101" height="30" viewBox="0 0 101 30" fill="none" xmlns="http://www.w3.org/2000/svg">
<path fill-rule="evenodd" clip-rule="evenodd" d="M99.3671 16.3215C99.5576 16.0833 99.9386 16.0833 100.129 16.3691L100.844 17.3693C100.986 17.5598 100.986 17.8455 100.844 18.036C99.5576 19.703 97.3668 21.2747 94.652 21.4175C92.5565 21.5604 90.7943 20.7508 89.8417 19.2267C89.6512 18.9409 89.2226 18.8933 89.0321 19.1791C87.889 20.7031 86.5555 21.8938 85.1267 21.9414C82.6025 22.0843 81.8881 20.3697 82.5072 16.6549C82.5548 16.2738 82.2215 15.9881 81.8881 16.0833C81.3642 16.2262 80.7927 16.2738 80.2211 16.2262C79.983 16.2262 79.7449 16.3691 79.6972 16.5596C78.7447 19.6553 76.5539 22.513 73.6486 22.6558C71.7912 22.7511 69.0765 21.7033 69.3146 17.274C69.3146 16.893 69.0288 16.6549 68.6955 16.7501C68.1239 16.9406 67.5048 16.9882 66.8856 16.9406C66.6475 16.9406 66.4094 17.0835 66.3617 17.274C65.4092 20.3697 63.2184 23.2274 60.3131 23.3702C58.4557 23.4655 55.741 22.4177 55.9791 17.9884C55.9791 17.6074 55.6933 17.3693 55.36 17.4645C54.7884 17.655 54.1693 17.7026 53.5501 17.655C53.312 17.655 53.0739 17.7979 53.0262 17.9884C52.0737 21.0842 49.8829 23.9418 46.9776 24.0846C45.6441 24.1799 43.8819 23.656 43.0723 21.7509C42.9294 21.3699 42.4531 21.3223 42.215 21.6557C41.0719 23.2274 39.6908 24.418 38.262 24.5133C36.7855 24.6085 35.9759 23.9894 35.5948 22.9416C35.452 22.5606 35.0233 22.4653 34.7376 22.7511C33.7374 23.9418 32.5467 24.799 31.4037 24.8943C29.5939 24.9895 28.5461 23.656 28.4985 22.0367C28.4032 20.1316 29.2129 17.9408 30.1178 15.5118C30.2607 15.1784 30.0225 14.7974 29.6891 14.7974C29.1652 14.7974 28.5461 14.7022 28.0222 14.6069C27.7841 14.5593 27.4983 14.7022 27.4507 14.9879C26.3553 18.8457 24.7359 22.6082 23.3071 24.8467C23.1643 25.0848 22.8309 25.1801 22.5927 24.9895L21.545 24.2275C21.3068 24.0846 21.2592 23.7512 21.4021 23.5131C23.4024 20.2745 25.2122 15.2261 25.8314 11.5112C25.879 11.273 26.0695 11.0825 26.3076 11.0825L27.7364 10.9873C28.0698 10.9873 28.308 11.273 28.2603 11.6064V11.6541C28.2127 11.9398 28.4032 12.2256 28.689 12.2732C29.9749 12.4637 31.8323 12.4637 33.1183 12.4161C33.4993 12.4161 33.7374 12.7971 33.5945 13.1305C32.5467 15.8928 31.1656 19.703 31.2608 21.1794C31.3084 21.8462 31.5942 22.2272 32.1181 22.1796C33.1183 22.1319 34.6899 20.084 35.8806 17.8455C35.8806 17.7979 35.9282 17.7503 35.9282 17.7026C36.3093 15.9405 36.9284 13.9401 37.4999 11.9398L37.5475 11.7969C37.5952 11.6064 37.7857 11.4635 37.9762 11.4159L39.6908 11.3207C40.0241 11.3207 40.3099 11.654 40.2146 11.9874C40.1194 12.2732 40.0241 12.559 39.9765 12.8447C38.5001 17.7503 37.2142 21.8462 38.9287 21.7509C40.0241 21.7033 41.5958 19.7982 42.9294 17.1788C42.9294 17.1311 42.977 17.0835 42.977 17.0359C43.0246 16.7025 43.1199 16.3215 43.2151 15.9405C43.9772 12.7971 44.8821 9.70135 45.787 6.60561C46.0727 5.65308 46.3585 4.70054 46.5966 3.74801C46.6443 3.5575 46.8348 3.36699 47.0729 3.36699L48.8351 3.27174C49.1685 3.27174 49.4542 3.60513 49.359 3.93851C48.6446 6.12934 47.9302 8.41543 47.2634 10.6539C47.1205 11.1302 47.6444 11.5112 48.0254 11.2254C48.6922 10.7491 49.5019 10.4634 50.2639 10.4158C52.2166 10.3205 53.5501 11.8922 53.693 14.3211C53.693 14.464 53.693 14.6069 53.693 14.7498C53.693 15.0356 53.8835 15.2261 54.1693 15.2737C55.0742 15.3689 56.0267 15.0832 56.7411 14.4164C56.8364 14.3688 56.884 14.2735 56.884 14.1783C57.5984 11.3683 58.4081 8.60594 59.2177 5.79596C59.5035 4.84342 59.7416 3.89089 60.0274 2.93835C60.075 2.74784 60.2655 2.55734 60.5037 2.55734L62.2658 2.46208C62.5992 2.46208 62.885 2.79547 62.7897 3.12886C62.0753 5.31969 61.3609 7.60577 60.6942 9.84423C60.5513 10.3205 61.0752 10.7015 61.4562 10.4158C62.123 9.93949 62.9326 9.65373 63.6946 9.6061C65.6473 9.51085 66.9809 11.0825 67.1238 13.5115C67.1238 13.6544 67.1238 13.7973 67.1238 13.9401C67.1238 14.2259 67.3143 14.4164 67.6 14.464C68.5049 14.5593 69.4575 14.2735 70.1719 13.6067C70.2671 13.5591 70.3148 13.4639 70.3148 13.3686C71.0292 10.5586 71.8388 7.79628 72.6485 4.9863C72.9342 4.03377 73.1724 3.08123 73.4581 2.1287C73.5058 1.93819 73.6963 1.74768 73.9344 1.74768L75.6966 1.65243C76.03 1.65243 76.3157 1.98582 76.2205 2.3192C75.5061 4.51003 74.7917 6.79612 74.1249 9.03458C73.982 9.51085 74.5059 9.89186 74.8869 9.6061C75.5537 9.12983 76.3634 8.84407 77.1254 8.79644C79.0781 8.70119 80.4116 10.2729 80.5545 12.7018C80.5545 12.8447 80.5545 12.9876 80.5545 13.1305C80.5545 13.4162 80.745 13.6067 81.0308 13.6544C81.9357 13.7496 82.8406 13.4639 83.555 12.8923C83.6503 12.8447 83.6979 12.7495 83.6979 12.6066C84.5075 9.46322 85.7458 5.27206 86.8889 1.31904C86.9365 1.12853 87.127 0.985654 87.3175 0.938027L89.0321 0.842773C89.3655 0.842773 89.6512 1.17616 89.556 1.50955C87.9367 6.84375 86.6507 11.4635 85.9363 14.2259C84.9838 17.9408 84.9362 19.0362 86.0316 18.9409C86.9365 18.8933 88.1748 17.6074 89.3178 15.6547C89.3655 15.5594 89.3655 15.5118 89.4131 15.4166C89.556 11.5112 91.9849 7.93916 95.557 7.74866C97.9383 7.60577 99.2718 9.41559 99.3671 11.1778C99.5576 14.5593 96.1761 16.7501 92.9375 16.5596C92.5565 16.512 92.2707 16.9406 92.4612 17.274C92.9375 18.2265 93.89 18.7981 95.5093 18.7028C96.7 18.8933 98.3669 17.5121 99.3671 16.3215ZM45.6441 17.274C44.8821 20.3697 45.787 21.5604 47.0253 21.5128C49.0256 21.4175 50.9307 17.7503 50.7878 14.9403C50.7402 13.702 50.0258 13.0829 49.1685 13.1305C47.7397 13.2257 46.2632 14.7974 45.6441 17.274ZM58.9796 16.512C58.2176 19.6077 59.1225 20.7984 60.3608 20.7508C62.3611 20.6555 64.2662 16.9882 64.1233 14.1783C64.0757 12.94 63.3613 12.3208 62.504 12.3685C61.1228 12.4637 59.5987 14.0354 58.9796 16.512ZM72.3627 15.75C71.6007 18.8457 72.5056 20.0364 73.7439 19.9887C75.7442 19.8935 77.6493 16.2262 77.5064 13.4162C77.4588 12.1779 76.7444 11.5588 75.8871 11.6064C74.4583 11.7017 72.9819 13.2734 72.3627 15.75ZM96.5095 11.7017C96.5095 10.892 95.9856 10.3205 95.1759 10.3681C93.6043 10.4634 92.366 12.1779 91.9373 14.2735C91.8897 14.6069 92.1278 14.8927 92.4612 14.8927C94.5092 14.845 96.5571 13.4639 96.5095 11.7017ZM22.1165 13.2257C21.926 6.939 17.8301 2.79547 11.7815 3.0336C9.16199 3.12886 6.20913 4.12902 3.97068 5.84358C3.78017 5.98646 3.68491 6.31985 3.82779 6.55799L4.78033 8.08204C4.92321 8.3678 5.30422 8.41543 5.54236 8.22492C7.25692 6.79612 9.54301 5.89121 11.7815 5.79596C15.925 5.60545 18.9731 8.27255 19.116 13.3686C19.3541 19.322 15.3535 26.1326 8.92386 26.5136C8.68573 26.5136 8.44759 26.5136 8.20946 26.5136C7.87607 26.5136 7.63794 26.1802 7.73319 25.8468C8.97149 20.846 10.4003 15.4642 11.8767 10.4634C11.972 10.13 11.7338 9.74898 11.3528 9.79661L9.54301 9.93949C9.3525 9.93949 9.16199 10.0824 9.06674 10.3205C7.63794 15.2261 6.20913 20.5603 4.97084 25.5611C4.87558 25.8468 4.58982 26.0373 4.35169 25.9421C3.68491 25.7039 3.06577 25.4658 2.54187 25.1324C2.30374 24.9895 1.97035 25.0848 1.82747 25.3706L1.01782 27.0375C0.874935 27.2756 0.970189 27.609 1.20832 27.7043C3.01814 28.7521 5.82812 29.3236 8.6381 29.1807C17.8301 28.6568 22.3546 20.1792 22.1165 13.2257ZM40.167 5.5102C39.0716 5.55782 38.0714 6.84375 38.1191 8.12967C38.1667 8.98695 38.7382 9.6061 39.5955 9.55847C40.6909 9.51085 41.7387 8.1773 41.6911 6.89137C41.6435 6.03409 40.9767 5.46257 40.167 5.5102Z" fill="white"/>
</svg>
