<svg width="101" height="25" viewBox="0 0 101 25" fill="none" xmlns="http://www.w3.org/2000/svg">
<path d="M99.5453 23.005C99.6067 23.0056 99.6677 22.9936 99.7243 22.9697C99.7809 22.9458 99.832 22.9105 99.8744 22.866C99.9169 22.8215 99.9497 22.7688 99.9709 22.7111C99.9921 22.6534 100.001 22.592 99.9976 22.5306C99.9976 22.1942 99.7946 22.0334 99.3782 22.0334H98.7053V23.7949H98.9584V23.027H99.2694L99.2765 23.0364L99.7591 23.7949H100.03L99.5105 23.0098L99.5453 23.005ZM99.2526 22.8285H98.9591V22.233H99.3311C99.5232 22.233 99.7423 22.2644 99.7423 22.516C99.7423 22.8054 99.5206 22.8285 99.2511 22.8285M0.950684 3.74467H4.68634V17.352H11.6021V20.7994H0.950684V3.74467ZM13.2537 9.23582H16.8424V20.7931H13.2537V9.23582ZM15.0481 3.4901C15.4598 3.49017 15.8623 3.61233 16.2046 3.84113C16.5469 4.06993 16.8137 4.3951 16.9712 4.77551C17.1287 5.15592 17.1699 5.5745 17.0895 5.97831C17.0091 6.38213 16.8108 6.75304 16.5197 7.04416C16.2285 7.33527 15.8575 7.53351 15.4537 7.61381C15.0499 7.6941 14.6313 7.65286 14.2509 7.49527C13.8705 7.33769 13.5454 7.07086 13.3167 6.72851C13.0879 6.38616 12.9659 5.98367 12.9659 5.57194C12.9659 5.29852 13.0197 5.02777 13.1244 4.77517C13.229 4.52256 13.3824 4.29304 13.5757 4.09972C13.7691 3.9064 13.9986 3.75306 14.2513 3.64846C14.5039 3.54386 14.7746 3.49005 15.0481 3.4901ZM31.8546 3.74206H35.4433V13.9344L39.5106 9.23058H43.9105L39.2003 14.5812L43.8114 20.7979H39.3008L35.4912 15.0851H35.4441V20.7972H31.8553L31.8546 3.74206ZM18.8323 9.23694H22.2786V10.8164H22.3276C22.6718 10.2266 23.1698 9.74142 23.7683 9.41261C24.3668 9.08381 25.0433 8.92373 25.7257 8.94947C29.3649 8.94947 30.0348 11.3438 30.0348 14.4544V20.7923H26.4461V15.1733C26.4461 13.832 26.4214 12.1079 24.5769 12.1079C22.7115 12.1079 22.4237 13.5685 22.4237 15.0757V20.7908H18.8349L18.8323 9.23694Z" fill="white"/>
<path d="M51.4681 13.6702C51.475 13.379 51.4227 13.0895 51.3144 12.8191C51.2061 12.5488 51.044 12.3033 50.838 12.0974C50.632 11.8915 50.3863 11.7296 50.1159 11.6215C49.8455 11.5134 49.556 11.4613 49.2648 11.4683C48.6378 11.4293 48.0205 11.6383 47.5461 12.0501C47.0717 12.462 46.7782 13.0438 46.7288 13.6702H51.4681ZM54.5081 18.7916C53.9118 19.5148 53.162 20.0962 52.3132 20.4939C51.4645 20.8916 50.5378 21.0956 49.6005 21.091C46.0118 21.091 43.1385 18.6955 43.1385 14.986C43.1385 11.2765 46.0114 8.88218 49.6005 8.88218C52.9549 8.88218 55.0584 11.2747 55.0584 14.986V16.1112H46.7288C46.8325 16.7494 47.1633 17.3286 47.6603 17.742C48.1573 18.1555 48.787 18.3755 49.4334 18.3613C49.9442 18.3581 50.4461 18.2273 50.8934 17.9806C51.3407 17.7339 51.7192 17.3793 51.9945 16.949L54.5081 18.7916ZM62.5387 12.0294C60.7443 12.0294 59.6677 13.2275 59.6677 14.9733C59.6677 16.7191 60.7439 17.9183 62.5387 17.9183C64.3334 17.9183 65.4123 16.7221 65.4123 14.9733C65.4123 13.2246 64.3353 12.0294 62.5387 12.0294ZM68.7161 20.7908H65.4123V19.2581H65.3633C64.9488 19.8156 64.4112 20.2699 63.7924 20.5855C63.1735 20.9012 62.4901 21.0697 61.7955 21.0779C58.3473 21.0779 56.0759 18.5893 56.0759 15.0701C56.0759 11.838 58.086 8.87022 61.3903 8.87022C62.8755 8.87022 64.2627 9.27657 65.0766 10.4029H65.1237V3.74094H68.7158L68.7161 20.7908ZM92.9435 20.7975H89.3548V15.1774C89.3548 13.8373 89.3308 12.112 87.4882 12.112C85.6191 12.112 85.3331 13.5722 85.3331 15.0799V20.7972H81.7444V9.23993H85.1896V10.8194H85.2378C85.5826 10.2298 86.0808 9.74489 86.6794 9.41613C87.278 9.08737 87.9546 8.92713 88.637 8.95246C92.2744 8.95246 92.945 11.345 92.945 14.4574L92.9435 20.7975ZM77.6951 7.66014C77.2832 7.66022 76.8805 7.53815 76.538 7.30937C76.1955 7.08059 75.9285 6.75538 75.7708 6.37487C75.6131 5.99435 75.5718 5.57562 75.6521 5.17162C75.7324 4.76763 75.9306 4.39651 76.2218 4.1052C76.513 3.81389 76.8841 3.61548 77.2881 3.53505C77.692 3.45462 78.1108 3.49579 78.4914 3.65335C78.8719 3.8109 79.1972 4.07778 79.4261 4.42022C79.655 4.76265 79.7772 5.16528 79.7773 5.57718C79.7774 5.85067 79.7235 6.12149 79.6189 6.37418C79.5143 6.62687 79.361 6.85648 79.1676 7.0499C78.9743 7.24332 78.7447 7.39677 78.492 7.50147C78.2394 7.60618 77.9686 7.66009 77.6951 7.66014ZM79.4895 20.7975H75.897V9.23993H79.4895V20.7975ZM94.7326 0.162294H74.0937C73.6252 0.157008 73.1738 0.337916 72.8387 0.665266C72.5036 0.992615 72.3121 1.43962 72.3064 1.90807V22.6327C72.3119 23.1013 72.5032 23.5486 72.8384 23.8763C73.1735 24.204 73.625 24.3853 74.0937 24.3803H94.7326C95.2022 24.3862 95.655 24.2054 95.9914 23.8778C96.3279 23.5501 96.5205 23.1023 96.527 22.6327V1.90657C96.5203 1.4372 96.3276 0.989683 95.9911 0.662342C95.6546 0.335 95.202 0.154608 94.7326 0.160799M99.2832 21.2488C98.8466 21.253 98.4294 21.4299 98.1229 21.7409C97.8164 22.0518 97.6455 22.4715 97.6476 22.9082C97.6497 23.3448 97.8246 23.7629 98.1341 24.0709C98.4436 24.3789 98.8625 24.5518 99.2991 24.5518C99.7358 24.5518 100.155 24.3789 100.464 24.0709C100.774 23.7629 100.949 23.3448 100.951 22.9082C100.953 22.4715 100.782 22.0518 100.475 21.7409C100.169 21.4299 99.7516 21.253 99.315 21.2488H99.2832ZM99.2832 24.3627C98.9968 24.3675 98.7155 24.2872 98.4747 24.1321C98.2339 23.9769 98.0446 23.7539 97.9306 23.4911C97.8166 23.2284 97.7831 22.9377 97.8342 22.6559C97.8854 22.3741 98.019 22.1138 98.2182 21.9079C98.4173 21.702 98.673 21.5598 98.953 21.4992C99.2329 21.4387 99.5246 21.4625 99.791 21.5677C100.057 21.6729 100.287 21.8547 100.45 22.0902C100.613 22.3257 100.702 22.6042 100.707 22.8906V22.9149C100.715 23.2906 100.574 23.6541 100.314 23.9255C100.054 24.1968 99.6967 24.3538 99.321 24.362H99.2836" fill="white"/>
</svg>
