<svg width="101" height="24" viewBox="0 0 101 24" fill="none" xmlns="http://www.w3.org/2000/svg">
<path fill-rule="evenodd" clip-rule="evenodd" d="M29.3576 1.51254C30.7325 1.8841 31.8132 2.96815 32.1785 4.34246C32.8432 6.83647 32.8432 12.0435 32.8432 12.0435C32.8432 12.0435 32.8432 17.2503 32.1785 19.7443C31.8081 21.1237 30.7275 22.2078 29.3576 22.5743C26.8716 23.2411 16.8969 23.2411 16.8969 23.2411C16.8969 23.2411 6.92739 23.2411 4.43626 22.5743C3.06135 22.2027 1.98065 21.1187 1.61539 19.7443C0.950684 17.2503 0.950684 12.0433 0.950684 12.0433C0.950684 12.0433 0.950684 6.83647 1.61539 4.34246C1.98576 2.96315 3.06647 1.87897 4.43626 1.51254C6.92739 0.845703 16.8969 0.845703 16.8969 0.845703C16.8969 0.845703 26.8716 0.845703 29.3576 1.51254ZM21.9959 12.0434L13.7108 16.8432V7.24369L21.9959 12.0434Z" fill="white"/>
<path fill-rule="evenodd" clip-rule="evenodd" d="M47.242 21.2203C46.6128 20.7929 46.1613 20.1311 45.8975 19.2303C45.6336 18.3294 45.4966 17.1333 45.4966 15.6368V13.6009C45.4966 12.0892 45.6488 10.8779 45.9532 9.96152C46.2576 9.04544 46.7346 8.37873 47.3789 7.96127C48.0232 7.54393 48.8706 7.3302 49.9207 7.3302C50.9558 7.3302 51.7828 7.54393 52.4068 7.97153C53.0308 8.39899 53.4875 9.06583 53.7767 9.97178C54.0659 10.8779 54.208 12.0892 54.208 13.5957V15.6318C54.208 17.1281 54.0659 18.3294 53.7868 19.2353C53.5078 20.1413 53.0513 20.8081 52.417 21.2254C51.7878 21.6428 50.9304 21.8568 49.8497 21.8568C48.7437 21.8616 47.871 21.6479 47.242 21.2203ZM50.7782 19.0216C50.9507 18.5635 51.0421 17.8152 51.0421 16.7821V12.4099C51.0421 11.402 50.9558 10.6691 50.7782 10.2009C50.6058 9.73766 50.2962 9.50354 49.8548 9.50354C49.4287 9.50354 49.1292 9.73766 48.9517 10.2009C48.7792 10.664 48.6879 11.402 48.6879 12.4099V16.7821C48.6879 17.8204 48.7691 18.5686 48.9365 19.0216C49.1039 19.4797 49.4084 19.7087 49.8498 19.7087C50.2962 19.7087 50.6006 19.4797 50.7782 19.0216ZM95.6792 16.38C95.6792 17.2808 95.7046 17.9527 95.7605 18.4056C95.8111 18.8536 95.9228 19.1844 96.0902 19.3882C96.2576 19.5916 96.5163 19.6986 96.8664 19.6986C97.3383 19.6986 97.663 19.5153 97.8355 19.1488C98.008 18.7823 98.1043 18.1715 98.1196 17.3165L100.834 17.4743C100.849 17.5964 100.854 17.7643 100.854 17.9781C100.854 19.2761 100.499 20.2431 99.7938 20.8844C99.0886 21.5257 98.0892 21.8464 96.7954 21.8464C95.2429 21.8464 94.1572 21.3578 93.5331 20.3805C92.9091 19.4033 92.5997 17.8966 92.5997 15.8506V13.4024C92.5997 11.2952 92.9243 9.76305 93.5685 8.79107C94.2129 7.82395 95.3189 7.34033 96.8868 7.34033C97.9674 7.34033 98.7944 7.53893 99.3727 7.93588C99.9511 8.33283 100.357 8.94864 100.596 9.78856C100.829 10.6284 100.951 11.789 100.951 13.2649V15.6674H95.6792V16.38ZM96.08 9.76818C95.9227 9.96678 95.8162 10.2924 95.7604 10.7404C95.7045 11.1883 95.6792 11.8755 95.6792 12.7864V13.7943H97.9826V12.7864C97.9826 11.8855 97.9522 11.2035 97.8912 10.7404C97.8304 10.2772 97.7188 9.94639 97.5615 9.75805C97.4041 9.5697 97.1556 9.47303 96.8207 9.47303C96.4859 9.4679 96.2373 9.5697 96.08 9.76818ZM39.5808 15.4078L35.999 2.43374H39.1242L40.3774 8.31257C40.6971 9.76318 40.9304 10.9949 41.0826 12.0179H41.1739C41.2805 11.2849 41.5139 10.0583 41.8792 8.33283L43.178 2.42861H46.3033L42.6808 15.4078V21.6327H39.5808V15.4078ZM64.3703 7.60509V21.6275H61.9096L61.6355 19.9123H61.5696C60.8999 21.2102 59.8954 21.8566 58.561 21.8566C57.6326 21.8566 56.9476 21.5512 56.5063 20.9404C56.0649 20.3296 55.8467 19.3779 55.8467 18.08V7.60509H58.9923V17.9018C58.9923 18.5278 59.0583 18.9758 59.1953 19.2404C59.3323 19.5051 59.5605 19.6425 59.8802 19.6425C60.1542 19.6425 60.418 19.561 60.6665 19.3931C60.9151 19.2252 61.1029 19.0113 61.2247 18.7518V7.60496L64.3703 7.60509ZM80.5143 7.60509V21.6275H78.0536L77.7796 19.9123H77.7137C77.044 21.2102 76.0394 21.8566 74.7051 21.8566C73.7767 21.8566 73.0917 21.5512 72.6504 20.9404C72.2089 20.3296 71.9908 19.3779 71.9908 18.08V7.60509H75.1364V17.9018C75.1364 18.5278 75.2023 18.9758 75.3393 19.2404C75.4762 19.5051 75.7046 19.6425 76.0242 19.6425C76.2983 19.6425 76.562 19.561 76.8106 19.3931C77.0592 19.2252 77.2469 19.0113 77.3687 18.7518V7.60496L80.5143 7.60509Z" fill="white"/>
<path fill-rule="evenodd" clip-rule="evenodd" d="M72.9242 4.97364H69.799V21.6275H66.7193V4.97364H63.594V2.43387H72.9191V4.97364H72.9242ZM90.9303 9.84959C90.7376 8.96402 90.4331 8.3227 90.0069 7.92575C89.5808 7.52868 88.9974 7.3302 88.2514 7.3302C87.6732 7.3302 87.1353 7.49303 86.633 7.82395C86.1308 8.14961 85.7452 8.58233 85.4712 9.11673H85.4459V1.72626H82.4118V21.6326H85.0094L85.3291 20.3042H85.3951C85.6386 20.7776 86.0039 21.1492 86.4909 21.4239C86.978 21.6988 87.5159 21.8363 88.1094 21.8363C89.1749 21.8363 89.9562 21.3425 90.4586 20.3601C90.9607 19.3779 91.2094 17.8407 91.2094 15.7488V13.5296C91.2145 11.9619 91.118 10.7352 90.9303 9.84959ZM88.0435 15.5706C88.0435 16.5937 88.0028 17.3928 87.9167 17.9731C87.8354 18.5534 87.6934 18.9656 87.4956 19.2099C87.2976 19.4542 87.0338 19.5764 86.699 19.5764C86.4402 19.5764 86.2018 19.5153 85.9786 19.3931C85.7604 19.271 85.5778 19.0877 85.4408 18.8434V10.8779C85.5474 10.496 85.73 10.1856 85.9888 9.9414C86.2475 9.69702 86.5264 9.57483 86.8309 9.57483C87.1505 9.57483 87.3991 9.70202 87.5716 9.95139C87.7442 10.2009 87.866 10.6284 87.9369 11.2188C88.003 11.8143 88.0384 12.6593 88.0384 13.7586V15.5706H88.0435Z" fill="white"/>
</svg>
