<svg width="20" height="20" viewBox="0 0 20 20" fill="none" xmlns="http://www.w3.org/2000/svg">
<path d="M18.3333 3.5H1.66668C0.747461 3.5 0 4.24746 0 5.16668V16.8334C0 17.7525 0.747461 18.5 1.66668 18.5H18.3334C19.2525 18.5 20 17.7525 20 16.8333V5.16668C20 4.24746 19.2525 3.5 18.3333 3.5ZM1.66668 4.33332H18.3334C18.3948 4.33332 18.4489 4.3557 18.5065 4.36836C17.0636 5.68895 12.279 10.066 10.6047 11.5745C10.4737 11.6925 10.2625 11.8333 10 11.8333C9.73758 11.8333 9.52641 11.6925 9.39496 11.5741C7.72078 10.0658 2.93598 5.68855 1.49328 4.36844C1.55102 4.35578 1.60523 4.33332 1.66668 4.33332ZM0.83332 16.8333V5.16668C0.83332 5.08504 0.85793 5.01098 0.879961 4.93637C1.98434 5.94715 5.32277 9.00121 7.48746 10.9697C5.3298 12.8231 1.99051 15.989 0.877344 17.0505C0.857695 16.9796 0.83332 16.9104 0.83332 16.8333ZM18.3333 17.6667H1.66668C1.60012 17.6667 1.54094 17.6435 1.47879 17.6286C2.62906 16.5321 5.98961 13.3479 8.10934 11.5345C8.38566 11.7852 8.63809 12.0138 8.83707 12.193C9.18051 12.5031 9.5825 12.6667 10 12.6667C10.4175 12.6667 10.8195 12.5031 11.1625 12.1934C11.3616 12.0141 11.6142 11.7853 11.8907 11.5345C14.0105 13.3477 17.3706 16.5316 18.5212 17.6286C18.4591 17.6435 18.4 17.6667 18.3333 17.6667ZM19.1667 16.8333C19.1667 16.9103 19.1423 16.9796 19.1227 17.0505C18.0091 15.9885 14.6702 12.8229 12.5126 10.9697C14.6773 9.00125 18.0153 5.94746 19.12 4.93629C19.1421 5.0109 19.1667 5.085 19.1667 5.16664V16.8333Z" fill="#DDDDDD"/>
</svg>
