<svg width="16" height="16" viewBox="0 0 16 16" fill="none" xmlns="http://www.w3.org/2000/svg">
<path d="M15.3556 10.6695L10.9916 8L15.3555 5.33051C15.4305 5.2845 15.4843 5.2106 15.5049 5.1249C15.5255 5.0392 15.5112 4.94885 15.4654 4.87378L14.1831 2.77761C14.0876 2.62116 13.8828 2.57183 13.7263 2.6675L9.56057 5.21591V0.332171C9.56057 0.148813 9.41176 0 9.2284 0H6.7715C6.58814 0 6.43933 0.148813 6.43933 0.332171V5.21591L2.27341 2.66766C2.11663 2.572 1.91234 2.62116 1.81668 2.77778L0.534332 4.87394C0.488492 4.94901 0.474209 5.03936 0.494804 5.12506C0.515398 5.21076 0.56921 5.28467 0.64428 5.33068L5.00834 8L0.64428 10.6695C0.56921 10.7153 0.515398 10.7894 0.494804 10.8749C0.474209 10.9608 0.488492 11.0512 0.534332 11.1262L1.81668 13.2222C1.91234 13.3787 2.11663 13.4282 2.27341 13.3325L6.43933 10.7841V15.6678C6.43933 15.8512 6.58814 16 6.7715 16H9.2284C9.41176 16 9.56057 15.8512 9.56057 15.6678V10.7843L13.7265 13.3323C13.8829 13.428 14.0877 13.3787 14.1832 13.2224L15.4656 11.1262C15.5114 11.0512 15.5257 10.9608 15.5051 10.8751C15.4847 10.7892 15.4307 10.7155 15.3556 10.6695Z" fill="#F26716"/>
</svg>
