<svg width="52" height="52" viewBox="0 0 52 52" fill="none" xmlns="http://www.w3.org/2000/svg">
<path d="M50.9816 26.0665C50.9816 39.864 39.7962 51.0485 26.0017 51.0485C12.2027 51.0485 1.01807 39.864 1.01807 26.0665C1.01807 12.2723 12.2027 1.08691 26.0017 1.08691C39.7969 1.08695 50.9816 12.2723 50.9816 26.0665Z" fill="#00979D" stroke="#81C9CB" stroke-width="1.69732" stroke-miterlimit="10"/>
<path opacity="0.5" d="M50.9816 26.0873C50.9816 39.8844 39.7962 51.0692 26.0017 51.0692C12.2027 51.0692 1.01807 39.8839 1.01807 26.0873C1.01807 12.2928 12.2027 1.10742 26.0017 1.10742C39.7969 1.108 50.9816 12.2927 50.9816 26.0873Z" fill="url(#paint0_linear_186_46)" stroke="url(#paint1_linear_186_46)" stroke-width="1.82116" stroke-miterlimit="10"/>
<path d="M35.5417 34.9999C35.0713 34.9999 34.5896 34.9661 34.116 34.8956C30.145 34.3288 27.4898 31.4769 26.0025 29.2846C24.5105 31.4769 21.8555 34.3316 17.8864 34.8976C17.4141 34.9652 16.9376 34.9992 16.4604 34.9991C13.9917 34.9991 11.6741 34.0802 9.93076 32.4119C8.17085 30.7298 7.19971 28.4725 7.19971 26.0655C7.19971 23.6555 8.17081 21.4013 9.93331 19.7161C11.6749 18.0475 13.9943 17.1313 16.4641 17.1313C16.9348 17.1313 17.4139 17.1652 17.886 17.2328C21.8552 17.7988 24.5102 20.6511 26.0023 22.8438C27.4898 20.6511 30.1449 17.7997 34.1154 17.2328C34.5891 17.1649 35.0682 17.1313 35.5389 17.1313C38.0077 17.1313 40.3269 18.0499 42.0685 19.7161C43.8301 21.4013 44.799 23.6555 44.799 26.0655C44.799 28.4725 43.8325 30.7298 42.071 32.4119C40.3263 34.0802 38.0106 34.9999 35.5417 34.9999ZM27.7608 26.0664C28.5363 27.5434 30.824 31.2288 34.5634 31.7644C34.8908 31.8094 35.2203 31.8344 35.5414 31.8344C38.9004 31.8344 41.6347 29.2473 41.6347 26.0655C41.6347 22.8838 38.901 20.2967 35.539 20.2967C35.2179 20.2967 34.8884 20.3196 34.5641 20.3667C30.824 20.901 28.5363 24.5864 27.7608 26.0664ZM16.4641 20.2975C13.1006 20.2975 10.3658 22.8845 10.3658 26.0664C10.3658 29.2476 13.0994 31.8353 16.4599 31.8353C16.7824 31.8353 17.112 31.8102 17.4393 31.7652C21.1789 31.2297 23.4659 27.5464 24.2418 26.0673C23.468 24.5903 21.1788 20.9018 17.4393 20.3693C17.1158 20.3204 16.7854 20.2975 16.4641 20.2975Z" fill="white"/>
<path d="M13.9126 25.1929H19.4739V26.985H13.9126V25.1929ZM38.0386 25.1929H36.1558V23.3074H34.3577V25.1929H32.4757V26.985H34.3577V28.8702H36.1558V26.985H38.0386V25.1929Z" fill="white"/>
<defs>
<linearGradient id="paint0_linear_186_46" x1="1.01807" y1="26.0883" x2="50.9816" y2="26.0883" gradientUnits="userSpaceOnUse">
<stop offset="0.117" stop-color="white" stop-opacity="0"/>
<stop offset="0.252" stop-color="#C0D1D3" stop-opacity="0.153"/>
<stop offset="0.387" stop-color="#91B3B7" stop-opacity="0.306"/>
<stop offset="0.52" stop-color="#6D9FA3" stop-opacity="0.457"/>
<stop offset="0.65" stop-color="#4D9195" stop-opacity="0.604"/>
<stop offset="0.776" stop-color="#30888B" stop-opacity="0.746"/>
<stop offset="0.895" stop-color="#148386" stop-opacity="0.881"/>
<stop offset="1" stop-color="#008184"/>
</linearGradient>
<linearGradient id="paint1_linear_186_46" x1="0.999847" y1="26.0883" x2="50.9999" y2="26.0883" gradientUnits="userSpaceOnUse">
<stop stop-color="white" stop-opacity="0"/>
<stop offset="0.153" stop-color="#C0D1D3" stop-opacity="0.153"/>
<stop offset="0.306" stop-color="#91B3B7" stop-opacity="0.306"/>
<stop offset="0.457" stop-color="#6D9FA3" stop-opacity="0.457"/>
<stop offset="0.604" stop-color="#4D9195" stop-opacity="0.604"/>
<stop offset="0.746" stop-color="#30888B" stop-opacity="0.746"/>
<stop offset="0.881" stop-color="#148386" stop-opacity="0.881"/>
<stop offset="1" stop-color="#008184"/>
</linearGradient>
</defs>
</svg>
