<svg width="50" height="41" viewBox="0 0 50 41" fill="none" xmlns="http://www.w3.org/2000/svg">
<path d="M23.5699 22.997L23.5698 22.9976C23.4294 25.4786 24.4573 27.7305 26.1386 29.338L26.1409 29.3403C27.849 30.9692 30.2265 31.9445 32.8163 31.9445C35.4055 31.9445 37.7822 30.9689 39.4892 29.3395L39.4898 29.3389C41.1731 27.731 42.2005 25.4793 42.0618 22.9993L42.0616 22.9953C41.9232 20.5887 40.7179 18.5316 39.0198 17.1237L39.0196 17.1235C37.3526 15.7418 35.1598 14.9358 32.8168 14.9343L32.8137 14.9343C30.4707 14.9358 28.2778 15.7418 26.6109 17.1235L26.6106 17.1237C24.9126 18.5315 23.7067 20.5892 23.5699 22.997Z" fill="#005385" stroke="white" stroke-width="5"/>
<path d="M15.3146 26.4423C15.3259 27.0791 15.5353 28.3203 15.8467 29.2919C16.5023 31.3437 17.6152 33.2433 19.165 34.9176C20.7547 36.6364 22.7097 38.019 24.9705 38.9984C27.3472 40.0299 29.9228 40.5562 32.5931 40.551C35.2646 40.5466 37.8388 40.0116 40.2155 38.9738C42.4743 37.9836 44.4294 36.5977 46.0179 34.8744C47.5654 33.1934 48.676 31.2908 49.3328 29.2379C49.6609 28.2157 49.8702 27.1604 49.9565 26.0922C50.0387 25.0502 50.0043 24.0026 49.8539 22.968C49.5592 20.9389 48.8416 19.0341 47.7389 17.2978C46.7264 15.7035 45.4261 14.3067 43.8783 13.1306L43.8806 13.1284L28.2634 1.38413C28.2503 1.3731 28.2372 1.36222 28.2238 1.35148C27.196 0.582964 25.4738 0.585175 24.3479 1.35702C23.2065 2.13854 23.0785 3.42818 24.0908 4.2443L24.0874 4.24651L30.6016 9.43547L10.7443 9.45595H10.7169C9.07641 9.45706 7.50005 10.5134 7.18636 11.8451C6.86731 13.2031 7.98245 14.3283 9.68796 14.3347L9.6857 14.3413L19.75 14.3219L1.78951 27.8207C1.76747 27.8379 1.74316 27.8542 1.72112 27.8714C0.0286163 29.1416 -0.519914 31.2551 0.546344 32.5924C1.63041 33.9523 3.93192 33.9534 5.64449 32.5979L15.446 24.7442C15.446 24.7442 15.3035 25.8046 15.3146 26.4423ZM40.5004 29.9915C38.4814 32.0087 35.6554 33.1503 32.5943 33.1555C29.532 33.1611 26.7048 32.0281 24.6845 30.0161C23.6977 29.0348 22.9725 27.9093 22.5243 26.7063C22.0854 25.5245 21.9162 24.2628 22.0286 23.0101C22.1361 21.7879 22.5051 20.6015 23.1116 19.5281C23.7022 18.4795 24.5135 17.5325 25.5148 16.7305C27.4775 15.163 29.9757 14.3153 32.592 14.312C35.2083 14.3089 37.7054 15.15 39.6692 16.7108C40.6694 17.5087 41.4807 18.4524 42.0702 19.499C42.677 20.5713 43.0467 21.7565 43.1554 22.9777C43.2674 24.2308 43.0978 25.4927 42.6586 26.6747C42.2115 27.8791 41.4872 29.0066 40.5004 29.9915Z" fill="#FF7021"/>
</svg>
