<svg width="50" height="47" viewBox="0 0 50 47" fill="none" xmlns="http://www.w3.org/2000/svg">
<path d="M31.3954 22.1812L11.6279 18.6929V44.4685C11.6279 45.6456 12.5822 46.5998 13.7593 46.5998H47.8686C49.0458 46.5998 50 45.6456 50 44.4685V34.9719L31.3954 22.1812Z" fill="#185C37"/>
<path d="M31.3954 0.0881348H13.7593C12.5822 0.0881348 11.6279 1.04239 11.6279 2.21952V11.716L31.3954 23.3439L41.8605 26.8323L50 23.3439V11.716L31.3954 0.0881348Z" fill="#21A366"/>
<path d="M11.6279 11.7161H31.3954V23.344H11.6279V11.7161Z" fill="#107C41"/>
<path opacity="0.1" d="M25.7756 9.39038H11.6279V38.4601H25.7756C26.9512 38.4563 27.9032 37.5043 27.907 36.3288V11.5218C27.9032 10.3462 26.9512 9.3942 25.7756 9.39038Z" fill="black"/>
<path opacity="0.2" d="M24.6128 10.5532H11.6279V39.623H24.6128C25.7884 39.6192 26.7404 38.6671 26.7442 37.4916V12.6846C26.7404 11.5091 25.7884 10.557 24.6128 10.5532Z" fill="black"/>
<path opacity="0.2" d="M24.6128 10.5532H11.6279V37.2974H24.6128C25.7884 37.2936 26.7404 36.3416 26.7442 35.166V12.6846C26.7404 11.5091 25.7884 10.557 24.6128 10.5532Z" fill="black"/>
<path opacity="0.2" d="M23.45 10.5532H11.6279V37.2974H23.45C24.6256 37.2936 25.5776 36.3416 25.5814 35.166V12.6846C25.5776 11.5091 24.6256 10.557 23.45 10.5532Z" fill="black"/>
<path d="M2.13139 10.5532H23.45C24.6271 10.5532 25.5814 11.5075 25.5814 12.6846V34.0032C25.5814 35.1803 24.6271 36.1346 23.45 36.1346H2.13139C0.954253 36.1346 0 35.1804 0 34.0032V12.6846C0 11.5075 0.954253 10.5532 2.13139 10.5532Z" fill="url(#paint0_linear_186_91)"/>
<path d="M6.60107 30.2718L11.0848 23.3241L6.97666 16.4148H10.2813L12.5232 20.8334C12.7302 21.2532 12.872 21.5648 12.9488 21.7706H12.9778C13.1227 21.4407 13.2779 21.1153 13.4429 20.795L15.8394 16.4171H18.8732L14.6604 23.2857L18.9802 30.2718H15.7522L13.1627 25.4218C13.0407 25.2154 12.9372 24.9987 12.8534 24.7741H12.8151C12.7392 24.9941 12.6385 25.2048 12.515 25.402L9.84877 30.2718H6.60107Z" fill="white"/>
<path d="M47.8688 0.0881348H31.3955V11.716H50.0002V2.21952C50.0002 1.04239 49.0459 0.0881348 47.8688 0.0881348Z" fill="#33C481"/>
<path d="M31.3955 23.344H50.0002V34.9719H31.3955V23.344Z" fill="#107C41"/>
<defs>
<linearGradient id="paint0_linear_186_91" x1="4.444" y1="8.8878" x2="21.1374" y2="37.8" gradientUnits="userSpaceOnUse">
<stop stop-color="#18884F"/>
<stop offset="0.5" stop-color="#117E43"/>
<stop offset="1" stop-color="#0B6631"/>
</linearGradient>
</defs>
</svg>
