<svg width="40" height="51" viewBox="0 0 40 51" fill="none" xmlns="http://www.w3.org/2000/svg">
<path d="M12.5293 49.2505C14.6314 50.0924 16.912 50.5922 19.3066 50.6753C22.5474 50.7879 25.6292 50.1211 28.3843 48.8544C25.0805 47.5626 22.0884 45.6736 19.5348 43.3247C17.8795 45.9625 15.4312 48.0457 12.5293 49.2505Z" fill="#FF9100"/>
<path d="M19.5331 43.3249C13.704 37.9595 10.1677 30.1938 10.4666 21.6762C10.4763 21.3996 10.491 21.1232 10.5081 20.8469C9.46415 20.5782 8.37425 20.4142 7.25262 20.3752C5.64713 20.3194 4.09235 20.5176 2.6245 20.929C1.06843 23.6417 0.1294 26.7543 0.0124184 30.0881C-0.289485 38.6924 4.94238 46.2103 12.5276 49.2506C15.4295 48.0459 17.8777 45.9649 19.5331 43.3249Z" fill="#FFC400"/>
<path d="M19.5333 43.3249C20.8885 41.1664 21.7102 38.6359 21.8059 35.9096C22.0575 28.7378 17.2131 22.5685 10.5083 20.8469C10.4912 21.1233 10.4765 21.3997 10.4668 21.6763C10.1679 30.1939 13.7041 37.9595 19.5333 43.3249Z" fill="#FF9100"/>
<path d="M21.0568 0.6875C17.2381 3.73209 14.2227 7.74664 12.3984 12.3713C11.3539 15.0203 10.6975 17.8657 10.5059 20.8484C17.2107 22.5699 22.0551 28.7393 21.8035 35.911C21.7078 38.6373 20.8837 41.1653 19.5308 43.3264C22.0844 45.6776 25.0765 47.5643 28.3803 48.856C35.0116 45.8055 39.7165 39.241 39.989 31.4766C40.1654 26.4459 38.2233 21.9625 35.479 18.178C32.581 14.1755 21.0568 0.6875 21.0568 0.6875Z" fill="#DD2C00"/>
</svg>
