<svg width="50" height="58" viewBox="0 0 50 58" fill="none" xmlns="http://www.w3.org/2000/svg">
<path d="M50 0.6875L45.4449 52.0617L24.9694 57.7766L4.5503 52.0698L0 0.6875H50Z" fill="#E5A32A"/>
<path d="M41.5452 48.7903L45.4378 4.88867H25V53.4083L41.5452 48.7903Z" fill="#F2BE20"/>
<path d="M25.0007 30.2476H24.9817H11.2622L11.3934 28.5569L12.74 11.1907H25.0007V17.4925H17.7507L17.25 23.9457H25.0007V30.2476Z" fill="#EBEBEB"/>
<path d="M24.9724 40.3198L18.0011 38.4247L17.5555 33.3987H14.168H11.272L12.1489 43.2935L24.971 46.877L24.9998 46.869V40.3124L24.9724 40.3198Z" fill="#EBEBEB"/>
<path d="M24.978 30.2473H32.6859L31.9593 38.4203L24.978 40.3174V46.8736L37.8103 43.2931L37.9044 42.2284L39.3753 25.6378L39.5281 23.9456H37.8413H24.978V30.2473Z" fill="white"/>
<mask id="mask0_65_98" style="mask-type:luminance" maskUnits="userSpaceOnUse" x="25" y="11" width="14" height="7">
<path d="M25 11.1903H37.8666L38.9032 17.4922L25 17.4921V11.1903Z" fill="white"/>
</mask>
<g mask="url(#mask0_65_98)">
<path d="M9.90234 13.5782V11.2057V11.1903H37.8297H37.8669L38.0992 12.6068L38.6266 15.8015L38.9035 17.4922H9.90234V13.5782Z" fill="white"/>
</g>
<path d="M33.3073 21.2063C33.3073 21.2004 32.6269 17.1598 32.6236 17.1463L32.6211 17.1353H35.7317H38.8423L38.8448 17.1463C38.8482 17.1604 39.5288 21.2019 39.5288 21.2068C39.5288 21.2088 38.1289 21.2105 36.4181 21.2105C34.7073 21.2105 33.3073 21.2087 33.3073 21.2063Z" fill="white" stroke="white" stroke-width="0.00404889"/>
</svg>
