<svg width="50" height="51" viewBox="0 0 50 51" fill="none" xmlns="http://www.w3.org/2000/svg">
<path d="M24.8203 0.6875C12.1266 0.6875 12.9188 6.19219 12.9188 6.19219L12.9344 11.8953H25.0469V13.6063H8.12032C8.12032 13.6063 0 12.6844 0 25.4938C0 38.3 7.08907 37.8469 7.08907 37.8469H11.3203V31.9031C11.3203 31.9031 11.0922 24.8141 18.2969 24.8141H30.3094C30.3094 24.8141 37.0594 24.9235 37.0594 18.2906V7.32344C37.0594 7.32344 38.0844 0.6875 24.8203 0.6875ZM18.1406 4.52188C19.3453 4.52188 20.3203 5.49688 20.3203 6.70157C20.3203 7.90625 19.3453 8.88125 18.1406 8.88125C17.8543 8.88166 17.5707 8.82557 17.306 8.71617C17.0414 8.60678 16.8009 8.44624 16.5984 8.24375C16.396 8.04127 16.2354 7.80082 16.126 7.53618C16.0166 7.27154 15.9605 6.98792 15.9609 6.70157C15.9609 5.49688 16.9359 4.52188 18.1406 4.52188Z" fill="url(#paint0_linear_67_121)"/>
<path d="M25.1798 50.4267C37.8736 50.4267 37.0814 44.922 37.0814 44.922L37.0657 39.2189H24.9532V37.5079H41.8782C41.8782 37.5079 50.0001 38.4298 50.0001 25.622C50.0001 12.8142 42.9111 13.2688 42.9111 13.2688H38.6798V19.211C38.6798 19.211 38.9079 26.3001 31.7032 26.3001H19.6907C19.6907 26.3001 12.9407 26.1907 12.9407 32.8235V43.7907C12.9407 43.7907 11.9157 50.4267 25.1798 50.4267ZM31.8595 46.5923C31.5731 46.5927 31.2895 46.5366 31.0249 46.4272C30.7602 46.3178 30.5198 46.1573 30.3173 45.9548C30.1148 45.7523 29.9543 45.5119 29.8449 45.2472C29.7355 44.9826 29.6794 44.699 29.6798 44.4126C29.6798 43.2095 30.6548 42.2345 31.8595 42.2345C33.0642 42.2345 34.0392 43.2079 34.0392 44.4126C34.0392 45.6189 33.0642 46.5923 31.8595 46.5923Z" fill="url(#paint1_linear_67_121)"/>
<defs>
<linearGradient id="paint0_linear_67_121" x1="4.80469" y1="5.03438" x2="29.5281" y2="29.8406" gradientUnits="userSpaceOnUse">
<stop stop-color="#387EB8"/>
<stop offset="1" stop-color="#366994"/>
</linearGradient>
<linearGradient id="paint1_linear_67_121" x1="20.0142" y1="20.8157" x2="46.5673" y2="46.2548" gradientUnits="userSpaceOnUse">
<stop stop-color="#FFE052"/>
<stop offset="1" stop-color="#FFC331"/>
</linearGradient>
</defs>
</svg>
