<svg width="50" height="47" viewBox="0 0 50 47" fill="none" xmlns="http://www.w3.org/2000/svg">
<path d="M47.8687 0.0681152H13.7593C12.5822 0.0681152 11.6279 1.02238 11.6279 2.19952V11.6961L31.3954 17.51L50.0001 11.6961V2.19952C50.0001 1.02238 49.0459 0.0681152 47.8687 0.0681152Z" fill="#41A5EE"/>
<path d="M50.0001 11.696H11.6279V23.324L31.3954 26.8124L50.0001 23.324V11.696Z" fill="#2B7CD3"/>
<path d="M11.6279 23.324V34.9519L30.2326 37.2775L50.0001 34.9519V23.324H11.6279Z" fill="#185ABD"/>
<path d="M13.7593 46.5798H47.8688C49.0459 46.5798 50.0002 45.6256 50.0002 44.4484V34.9519H11.6279V44.4484C11.6279 45.6256 12.5822 46.5798 13.7593 46.5798Z" fill="#103F91"/>
<path opacity="0.1" d="M25.7756 9.37061H11.6279V38.4405H25.7756C26.9512 38.4366 27.9032 37.4846 27.907 36.309V11.502C27.9032 10.3265 26.9512 9.37443 25.7756 9.37061Z" fill="black"/>
<path opacity="0.2" d="M24.6128 10.5332H11.6279V39.6031H24.6128C25.7884 39.5992 26.7404 38.6472 26.7443 37.4716V12.6646C26.7404 11.4891 25.7884 10.537 24.6128 10.5332Z" fill="black"/>
<path opacity="0.2" d="M24.6128 10.5332H11.6279V37.2775H24.6128C25.7884 37.2736 26.7404 36.3216 26.7443 35.1461V12.6646C26.7404 11.4891 25.7884 10.537 24.6128 10.5332Z" fill="black"/>
<path opacity="0.2" d="M23.4501 10.5332H11.6279V37.2775H23.4501C24.6256 37.2736 25.5776 36.3216 25.5815 35.1461V12.6646C25.5776 11.4891 24.6256 10.537 23.4501 10.5332Z" fill="black"/>
<path d="M2.13141 10.5332H23.4501C24.6272 10.5332 25.5815 11.4875 25.5815 12.6646V33.9833C25.5815 35.1604 24.6272 36.1147 23.4501 36.1147H2.13141C0.954262 36.1147 0 35.1604 0 33.9833V12.6646C0 11.4875 0.954262 10.5332 2.13141 10.5332Z" fill="url(#paint0_linear_186_78)"/>
<path d="M8.74673 26.8798C8.78859 27.2088 8.81649 27.4949 8.82928 27.7402H8.8781C8.89671 27.5077 8.93546 27.2274 8.99438 26.8995C9.0533 26.5716 9.10641 26.2945 9.15369 26.0681L11.3956 16.396H14.2944L16.62 25.9228C16.7551 26.5151 16.8518 27.1156 16.9095 27.7204H16.9479C16.9913 27.1345 17.0721 26.5519 17.1898 25.9763L19.0444 16.3914H21.6828L18.4247 30.2519H15.3421L13.1328 21.0728C13.0688 20.8088 12.9956 20.4634 12.9153 20.039C12.8351 19.6146 12.7851 19.3041 12.7653 19.1088H12.727C12.7014 19.3344 12.6514 19.6693 12.577 20.1134C12.5025 20.5576 12.4428 20.8863 12.3979 21.0995L10.3211 30.2495H7.18622L3.91064 16.396H6.59669L8.61647 26.0879C8.66183 26.2867 8.70486 26.5518 8.74673 26.8798Z" fill="white"/>
<defs>
<linearGradient id="paint0_linear_186_78" x1="4.44403" y1="8.86776" x2="21.1374" y2="37.7801" gradientUnits="userSpaceOnUse">
<stop stop-color="#2368C4"/>
<stop offset="0.5" stop-color="#1A5DBE"/>
<stop offset="1" stop-color="#1146AC"/>
</linearGradient>
</defs>
</svg>
