<svg width="13" height="13" viewBox="0 0 13 13" fill="none" xmlns="http://www.w3.org/2000/svg">
<g clip-path="url(#clip0_1_425)">
<path d="M7.40401 0.316349C7.37076 0.449336 7.40401 0.582323 7.48712 0.698688C7.85284 1.1309 8.15206 1.6296 8.35154 2.17817C8.55102 2.69349 8.65076 3.25869 8.65076 3.85713C8.65076 5.20363 8.10219 6.43376 7.22115 7.3148C6.34011 8.19584 5.10998 8.74441 3.76348 8.74441C3.19829 8.74441 2.64971 8.64467 2.15101 8.47844C1.61906 8.29558 1.13698 8.0296 0.721399 7.68051C0.538542 7.5309 0.272568 7.56415 0.122957 7.74701C0.0398399 7.86337 0.00659309 7.99636 0.0398399 8.12935C0.422178 9.54233 1.26997 10.7725 2.40036 11.6535C3.51413 12.5013 4.89387 13 6.38998 13C8.20193 13 9.84765 12.2686 11.0445 11.0717C12.2414 9.8748 12.9728 8.24571 12.9728 6.41714C12.9728 4.88778 12.4409 3.47479 11.5599 2.3444C10.6622 1.19739 9.38219 0.36622 7.91933 0.017128C7.68661 -0.049365 7.45388 0.083621 7.40401 0.316349Z" fill="black"/>
</g>
<defs>
<clipPath id="clip0_1_425">
<rect width="13" height="13" fill="white" transform="matrix(0 -1 1 0 0 13)"/>
</clipPath>
</defs>
</svg>
