<svg width="21" height="21" viewBox="0 0 21 21" fill="none" xmlns="http://www.w3.org/2000/svg">
<g clip-path="url(#clip0_1_429)">
<path d="M6.77821 6.77783C5.83377 7.72227 5.22266 9.05561 5.22266 10.5001C5.22266 11.9445 5.80599 13.2778 6.77821 14.2223C7.72266 15.1667 9.05599 15.7778 10.5004 15.7778C11.9449 15.7778 13.2782 15.1667 14.2227 14.2223C15.1671 13.2778 15.7782 11.9445 15.7782 10.5001C15.7782 9.05561 15.1949 7.72227 14.2227 6.77783C13.2782 5.83339 11.9449 5.22227 10.5004 5.22227C9.05599 5.22227 7.72266 5.80561 6.77821 6.77783ZM13.2227 7.77783C13.9171 8.47228 14.3338 9.4445 14.3338 10.5001C14.3338 11.5556 13.9171 12.5278 13.2227 13.2223C12.5282 13.9167 11.556 14.3334 10.5004 14.3334C9.44488 14.3334 8.47266 13.9167 7.77821 13.2223C7.08377 12.5278 6.6671 11.5556 6.6671 10.5001C6.6671 9.4445 7.08377 8.47228 7.77821 7.77783C8.47266 7.08339 9.44488 6.66672 10.5004 6.66672C11.556 6.66672 12.5282 7.08339 13.2227 7.77783Z" fill="white"/>
<path d="M9.77734 0.722139V2.86103C9.77734 3.24992 10.1107 3.58325 10.4996 3.58325C10.8885 3.58325 11.2218 3.24992 11.2218 2.86103V0.722139C11.2218 0.33325 10.8885 -8.27312e-05 10.4996 -8.27312e-05C10.1107 -8.27312e-05 9.77734 0.33325 9.77734 0.722139Z" fill="white"/>
<path d="M17.417 10.4999C17.417 10.8888 17.7503 11.2222 18.1392 11.2222H20.2781C20.667 11.2222 21.0003 10.8888 21.0003 10.4999C21.0003 10.1111 20.667 9.77772 20.2781 9.77772H18.1392C17.7503 9.77772 17.417 10.1111 17.417 10.4999Z" fill="white"/>
<path d="M16.9168 3.08322L15.389 4.611C15.1112 4.861 15.1112 5.33322 15.389 5.611C15.6668 5.88878 16.1112 5.88878 16.389 5.611L17.9168 4.08322C18.1946 3.80545 18.1946 3.361 17.9168 3.08322C17.639 2.80545 17.1946 2.80545 16.9168 3.08322Z" fill="white"/>
<path d="M0 10.4999C0 10.8888 0.333333 11.2222 0.722222 11.2222H2.86111C3.25 11.2222 3.58333 10.8888 3.58333 10.4999C3.58333 10.1111 3.25 9.77772 2.86111 9.77772H0.722222C0.333333 9.77772 0 10.1111 0 10.4999Z" fill="white"/>
<path d="M3.08333 3.05564C2.80556 3.33341 2.80556 3.77786 3.08333 4.05564L4.61111 5.58341C4.88889 5.86119 5.33333 5.86119 5.61111 5.58341C5.88889 5.33341 5.88889 4.86119 5.61111 4.58341L4.08333 3.05564C3.80556 2.77786 3.36111 2.77786 3.08333 3.05564Z" fill="white"/>
<path d="M9.77734 18.1389V20.2778C9.77734 20.6667 10.1107 21 10.4996 21C10.8885 21 11.2218 20.6944 11.2218 20.2778V18.1389C11.2218 17.75 10.8885 17.4167 10.4996 17.4167C10.1107 17.4167 9.77734 17.75 9.77734 18.1389Z" fill="white"/>
<path d="M15.389 15.4167C15.1112 15.6667 15.1112 16.1389 15.389 16.4167L16.9168 17.9445C17.1946 18.2223 17.639 18.2223 17.9168 17.9445C18.1946 17.6667 18.1946 17.2223 17.9168 16.9445L16.389 15.4167C16.1112 15.1389 15.6668 15.1389 15.389 15.4167Z" fill="white"/>
<path d="M4.61111 15.4167L3.08333 16.9445C2.80556 17.2223 2.80556 17.6667 3.08333 17.9445C3.36111 18.2223 3.80556 18.2223 4.08333 17.9445L5.61111 16.4167C5.88889 16.1389 5.88889 15.6945 5.61111 15.4167C5.33333 15.1389 4.88889 15.1389 4.61111 15.4167Z" fill="white"/>
</g>
<defs>
<clipPath id="clip0_1_429">
<rect width="21" height="21" fill="white" transform="matrix(0 -1 1 0 0 21)"/>
</clipPath>
</defs>
</svg>
